<svg xmlns="http://www.w3.org/2000/svg" style="isolation:isolate" width="768" height="1024"><defs><clipPath id="a"><path d="M0 0h768v1024H0z"/></clipPath></defs><g clip-path="url(#a)"><path d="M193.76 621.488L3.347 729.388 193.76 840.463l190.414 111.074V731.61L193.76 621.488z" fill="#14495B"/><path d="M384.174 513.904L193.76 621.805l190.414 111.074 190.413 111.075V624.026L384.174 513.904z" fill="#14495B"/><path d="M3.347 291.438v437.95l190.413-107.9V180.364L3.347 291.438z" fill="#07333C"/><path d="M193.76 183.537v437.951l190.414-107.901V72.463L193.76 183.537z" fill="#07333C"/><path d="M193.76 180.364L3.347 291.438 193.76 402.512l190.414 107.901 190.413-109.487L193.76 180.364z" fill="#569CBE"/><path d="M384.174 70.876L193.76 181.95l190.414 111.075 190.413 107.901L765 291.438 384.174 70.876z" fill="#569CBE"/><path d="M384.174 510.413v441.124l188.509-107.583 1.904-.952V400.926L384.174 510.413zm190.413-110.281v441.124l188.509-107.583 1.904-.952V290.645L574.587 400.132z" fill="#3B829E"/><path fill="none" d="M-3 178.777h577.587v774.347H-3z"/></g></svg>