<?xml version="1.0" standalone="no"?><!-- Generator: Gravit.io --><svg xmlns="http://www.w3.org/2000/svg" xmlns:xlink="http://www.w3.org/1999/xlink" style="isolation:isolate" viewBox="0 0 768 1024" width="768" height="1024"><defs><clipPath id="_clipPath_ipgYs7NhAtabma5epSuxH6uKBwQ4LuOs"><rect width="768" height="1024"/></clipPath></defs><g clip-path="url(#_clipPath_ipgYs7NhAtabma5epSuxH6uKBwQ4LuOs)"><g id="Group"><g id="logo"><g id="Layer_2"><path d=" M 193.76 621.488 L 193.76 621.488 L 3.347 729.388 L 193.76 840.463 L 384.174 951.537 L 384.174 731.61 L 193.76 621.488 Z " fill="rgb(20,73,91)"/><path d=" M 384.174 513.904 L 384.174 513.904 L 193.76 621.805 L 384.174 732.879 L 574.587 843.954 L 574.587 624.026 L 384.174 513.904 Z " fill="rgb(20,73,91)"/><path d=" M 3.347 291.438 L 3.347 729.388 L 3.347 729.388 L 193.76 621.488 L 193.76 401.878 L 193.76 400.926 L 193.76 180.364 L 3.347 291.438 Z " fill="rgb(7,51,60)"/><path d=" M 193.76 183.537 L 193.76 621.488 L 193.76 621.488 L 384.174 513.587 L 384.174 293.977 L 384.174 293.025 L 384.174 72.463 L 193.76 183.537 Z " fill="rgb(7,51,60)"/><path d=" M 193.76 180.364 L 3.347 291.438 L 193.76 402.512 L 384.174 510.413 L 574.587 400.926 L 193.76 180.364 Z " fill="rgb(86,156,190)"/><path d=" M 384.174 70.876 L 193.76 181.95 L 384.174 293.025 L 574.587 400.926 L 765 291.438 L 384.174 70.876 Z " fill="rgb(86,156,190)"/><path d=" M 384.174 510.413 L 384.174 733.514 L 384.174 951.537 L 572.683 843.954 L 574.587 843.002 L 574.587 400.926 L 384.174 510.413 Z " fill="rgb(59,130,158)"/><path d=" M 574.587 400.132 L 574.587 623.233 L 574.587 841.256 L 763.096 733.673 L 765 732.721 L 765 290.645 L 574.587 400.132 Z " fill="rgb(59,130,158)"/><rect x="-3" y="178.777" width="577.587" height="774.347" transform="matrix(1,0,0,1,0,0)" fill="none"/></g></g></g></g></svg>