<?xml version="1.0" encoding="utf-8"?>
<!-- Generator: Adobe Illustrator 21.0.0, SVG Export Plug-In . SVG Version: 6.00 Build 0)  -->
<svg version="1.1" xmlns="http://www.w3.org/2000/svg" xmlns:xlink="http://www.w3.org/1999/xlink" x="0px" y="0px"
	 viewBox="0 0 180 244" style="enable-background:new 0 0 180 244;" xml:space="preserve">
<style type="text/css">
	.st0{fill:none;stroke:#000000;stroke-miterlimit:10;}
	.st1{fill:#14495B;}
	.st2{fill:#07333C;}
	.st3{fill:#569CBE;}
	.st4{fill:#3B829E;}
	.st5{fill:none;}
	.st6{fill:#F2951F;}
</style>
<g id="Layer_1">
	<g>
		<line class="st0" x1="1692.5" y1="-605.5" x2="826.5" y2="-1105.5"/>
	</g>
	<g>
		<line class="st0" x1="1632.5" y1="-605.5" x2="766.5" y2="-1105.5"/>
	</g>
	<g>
		<line class="st0" x1="1572.5" y1="-605.5" x2="706.5" y2="-1105.5"/>
	</g>
	<g>
		<line class="st0" x1="1512.5" y1="-605.5" x2="646.5" y2="-1105.5"/>
	</g>
	<g>
		<line class="st0" x1="1452.5" y1="-605.5" x2="586.5" y2="-1105.5"/>
	</g>
	<g>
		<line class="st0" x1="1392.5" y1="-605.5" x2="526.5" y2="-1105.5"/>
	</g>
	<g>
		<line class="st0" x1="1332.5" y1="-605.5" x2="466.5" y2="-1105.5"/>
	</g>
	<g>
		<line class="st0" x1="1272.5" y1="-605.5" x2="406.5" y2="-1105.5"/>
	</g>
	<g>
		<line class="st0" x1="1212.5" y1="-605.5" x2="346.5" y2="-1105.5"/>
	</g>
	<g>
		<line class="st0" x1="1152.5" y1="-605.5" x2="286.5" y2="-1105.5"/>
	</g>
	<g>
		<line class="st0" x1="1092.5" y1="-605.5" x2="226.5" y2="-1105.5"/>
	</g>
	<g>
		<line class="st0" x1="1032.5" y1="-605.5" x2="166.5" y2="-1105.5"/>
	</g>
	<g>
		<line class="st0" x1="972.5" y1="-605.5" x2="106.5" y2="-1105.5"/>
	</g>
	<g>
		<line class="st0" x1="912.5" y1="-605.5" x2="46.5" y2="-1105.5"/>
	</g>
	<g>
		<line class="st0" x1="852.5" y1="-605.5" x2="-13.5" y2="-1105.5"/>
	</g>
	<g>
		<line class="st0" x1="792.5" y1="-605.5" x2="-73.5" y2="-1105.5"/>
	</g>
	<g>
		<line class="st0" x1="732.5" y1="-605.5" x2="-133.5" y2="-1105.5"/>
	</g>
	<g>
		<line class="st0" x1="672.5" y1="-605.5" x2="-193.5" y2="-1105.5"/>
	</g>
	<g>
		<line class="st0" x1="612.5" y1="-605.5" x2="-253.5" y2="-1105.5"/>
	</g>
	<g>
		<line class="st0" x1="552.5" y1="-605.5" x2="-313.5" y2="-1105.5"/>
	</g>
	<g>
		<line class="st0" x1="492.5" y1="-605.5" x2="-373.5" y2="-1105.5"/>
	</g>
	<g>
		<line class="st0" x1="432.5" y1="-605.5" x2="-433.5" y2="-1105.5"/>
	</g>
	<g>
		<line class="st0" x1="372.5" y1="-605.5" x2="-493.5" y2="-1105.5"/>
	</g>
	<g>
		<line class="st0" x1="312.5" y1="-605.5" x2="-553.5" y2="-1105.5"/>
	</g>
	<g>
		<line class="st0" x1="252.5" y1="-605.5" x2="-613.5" y2="-1105.5"/>
	</g>
	<g>
		<line class="st0" x1="192.5" y1="-605.5" x2="-673.5" y2="-1105.5"/>
	</g>
	<g>
		<line class="st0" x1="132.5" y1="-605.5" x2="-733.5" y2="-1105.5"/>
	</g>
	<g>
		<line class="st0" x1="72.5" y1="-605.5" x2="-793.5" y2="-1105.5"/>
	</g>
	<g>
		<line class="st0" x1="12.5" y1="-605.5" x2="-853.5" y2="-1105.5"/>
	</g>
	<g>
		<line class="st0" x1="-47.5" y1="-605.5" x2="-913.5" y2="-1105.5"/>
	</g>
	<g>
		<line class="st0" x1="-107.5" y1="-605.5" x2="-973.5" y2="-1105.5"/>
	</g>
	<g>
		<line class="st0" x1="-167.5" y1="-605.5" x2="-1033.5" y2="-1105.5"/>
	</g>
	<g>
		<line class="st0" x1="-227.5" y1="-605.5" x2="-1093.5" y2="-1105.5"/>
	</g>
	<g>
		<line class="st0" x1="-1093.5" y1="-605.5" x2="-227.5" y2="-1105.5"/>
	</g>
	<g>
		<line class="st0" x1="-1033.5" y1="-605.5" x2="-167.5" y2="-1105.5"/>
	</g>
	<g>
		<line class="st0" x1="-973.5" y1="-605.5" x2="-107.5" y2="-1105.5"/>
	</g>
	<g>
		<line class="st0" x1="-913.5" y1="-605.5" x2="-47.5" y2="-1105.5"/>
	</g>
	<g>
		<line class="st0" x1="-853.5" y1="-605.5" x2="12.5" y2="-1105.5"/>
	</g>
	<g>
		<line class="st0" x1="-793.5" y1="-605.5" x2="72.5" y2="-1105.5"/>
	</g>
	<g>
		<line class="st0" x1="-733.5" y1="-605.5" x2="132.5" y2="-1105.5"/>
	</g>
	<g>
		<line class="st0" x1="-673.5" y1="-605.5" x2="192.5" y2="-1105.5"/>
	</g>
	<g>
		<line class="st0" x1="-613.5" y1="-605.5" x2="252.5" y2="-1105.5"/>
	</g>
	<g>
		<line class="st0" x1="-553.5" y1="-605.5" x2="312.5" y2="-1105.5"/>
	</g>
	<g>
		<line class="st0" x1="-493.5" y1="-605.5" x2="372.5" y2="-1105.5"/>
	</g>
	<g>
		<line class="st0" x1="-433.5" y1="-605.5" x2="432.5" y2="-1105.5"/>
	</g>
	<g>
		<line class="st0" x1="-373.5" y1="-605.5" x2="492.5" y2="-1105.5"/>
	</g>
	<g>
		<line class="st0" x1="-313.5" y1="-605.5" x2="552.5" y2="-1105.5"/>
	</g>
	<g>
		<line class="st0" x1="-253.5" y1="-605.5" x2="612.5" y2="-1105.5"/>
	</g>
	<g>
		<line class="st0" x1="-193.5" y1="-605.5" x2="672.5" y2="-1105.5"/>
	</g>
	<g>
		<line class="st0" x1="-133.5" y1="-605.5" x2="732.5" y2="-1105.5"/>
	</g>
	<g>
		<line class="st0" x1="-73.5" y1="-605.5" x2="792.5" y2="-1105.5"/>
	</g>
	<g>
		<line class="st0" x1="-13.5" y1="-605.5" x2="852.5" y2="-1105.5"/>
	</g>
	<g>
		<line class="st0" x1="46.5" y1="-605.5" x2="912.5" y2="-1105.5"/>
	</g>
	<g>
		<line class="st0" x1="106.5" y1="-605.5" x2="972.5" y2="-1105.5"/>
	</g>
	<g>
		<line class="st0" x1="166.5" y1="-605.5" x2="1032.5" y2="-1105.5"/>
	</g>
	<g>
		<line class="st0" x1="226.5" y1="-605.5" x2="1092.5" y2="-1105.5"/>
	</g>
	<g>
		<line class="st0" x1="286.5" y1="-605.5" x2="1152.5" y2="-1105.5"/>
	</g>
	<g>
		<line class="st0" x1="346.5" y1="-605.5" x2="1212.5" y2="-1105.5"/>
	</g>
	<g>
		<line class="st0" x1="406.5" y1="-605.5" x2="1272.5" y2="-1105.5"/>
	</g>
	<g>
		<line class="st0" x1="466.5" y1="-605.5" x2="1332.5" y2="-1105.5"/>
	</g>
	<g>
		<line class="st0" x1="526.5" y1="-605.5" x2="1392.5" y2="-1105.5"/>
	</g>
	<g>
		<line class="st0" x1="586.5" y1="-605.5" x2="1452.5" y2="-1105.5"/>
	</g>
	<g>
		<line class="st0" x1="646.5" y1="-605.5" x2="1512.5" y2="-1105.5"/>
	</g>
	<g>
		<line class="st0" x1="706.5" y1="-605.5" x2="1572.5" y2="-1105.5"/>
	</g>
	<g>
		<line class="st0" x1="766.5" y1="-605.5" x2="1632.5" y2="-1105.5"/>
	</g>
	<g>
		<line class="st0" x1="826.5" y1="-605.5" x2="1692.5" y2="-1105.5"/>
	</g>
</g>
<g id="Layer_2">
	<polygon class="st1" points="60,139.5 60,139.5 0,173.5 60,208.5 120,243.5 120,174.2 	"/>
	<polygon class="st2" points="0,35.5 0,173.5 0,173.5 60,139.5 60,70.3 60,70 60,0.5 	"/>
	<polygon class="st3" points="60,0.5 0,35.5 60,70.5 120,104.5 180,70 	"/>
	<polygon class="st4" points="120,104.5 120,174.8 120,243.5 179.4,209.6 180,209.3 180,70 	"/>
	<rect id="_x3C_Slice_x3E_" x="-2" class="st5" width="182" height="244"/>
	<rect x="7.1" y="219.5" class="st6" width="28.8" height="13.8"/>
</g>
</svg>
